<svg height="512" viewBox="0 0 64 64" width="512" xmlns="http://www.w3.org/2000/svg"><g id="Layer_28" data-name="Layer 28"><path d="m60 43.8-25.75-39.58a2.68 2.68 0 0 0 -4.5 0l-25.75 39.58a6 6 0 0 0 .79 7.55 5.63 5.63 0 0 0 4 1.65h46.47a5.54 5.54 0 0 0 4-1.65 6 6 0 0 0 .74-7.55zm-2.14 5.73a4.94 4.94 0 0 1 -3.52 1.47h-44.68a4.94 4.94 0 0 1 -3.54-1.47 3.81 3.81 0 0 1 -.5-4.78l25.54-39.29a1 1 0 0 1 1.68 0l25.54 39.3a3.72 3.72 0 0 1 .62 2.07 3.8 3.8 0 0 1 -1.12 2.7z"/><path d="m31 29v-8.55l-6.42 13.55h7.42a1 1 0 0 1 1 1v7l6.34-12h-7.34a1 1 0 0 1 -1-1z"/><path d="m26 55h12v2h-12z"/><path d="m32 7.83-24.71 38a1.79 1.79 0 0 0 -.29 1 1.83 1.83 0 0 0 .53 1.29 3 3 0 0 0 2.13.88h44.68a3 3 0 0 0 2.13-.88 1.83 1.83 0 0 0 .53-1.29 1.79 1.79 0 0 0 -.29-1zm9.88 21.64-9 17a1 1 0 0 1 -1.88-.47v-10h-8a1 1 0 0 1 -.85-.46 1 1 0 0 1 0-1l9-19a1 1 0 0 1 1.85.46v12h8a1 1 0 0 1 .88 1.47z"/><path d="m28 62h8v-3h-8z"/></g></svg>