<svg id="solar_panel-computer-smartphone" height="512" viewBox="0 0 64 64" width="512" xmlns="http://www.w3.org/2000/svg" data-name="solar panel-computer-smartphone"><path d="m13 44h4v4h-4z" fill="#fff"/><path d="m51 54h4v4h-4z" fill="#fff"/><rect fill="#acabb1" height="26" rx="2" width="16" x="45" y="28"/><path d="m48 31h10v18h-10z" fill="#2488ff"/><rect fill="#2488ff" height="16" rx="2" width="24" x="3" y="28"/><path d="m35 17v4h-3-3v-4z" fill="#3e3d42"/><path d="m23.59 12-.59 5h-12l.71-5z" fill="#46f8ff"/><path d="m24.17 7-.58 5h-11.88l.72-5z" fill="#00eed1"/><path d="m41 17h-18l.59-5h16.82z" fill="#00eed1"/><path d="m39.83 7 .58 5h-16.82l.58-5z" fill="#46f8ff"/><path d="m39.36 3 .47 4h-15.66l.47-4z" fill="#00eed1"/><path d="m51 3 .57 4h-11.74l-.47-4z" fill="#46f8ff"/><path d="m52.29 12h-11.88l-.58-5h11.74z" fill="#00eed1"/><path d="m52.29 12 .71 5h-12l-.59-5z" fill="#46f8ff"/><path d="m24.64 3-.47 4h-11.74l.57-4z" fill="#46f8ff"/><path d="m29 17h6v1h-6z" fill="#2d2d30"/><g fill="#231f20"><path d="m15 31-3 5h3z"/><path d="m18 36h-3v5z"/><path d="m59 27h-12a3.009 3.009 0 0 0 -3 3v22a3.009 3.009 0 0 0 3 3h3v3a1 1 0 0 0 1 1h1v1h-19v-38h2a1 1 0 0 0 1-1v-3h17a1.037 1.037 0 0 0 .76-.34 1.006 1.006 0 0 0 .23-.8l-2-14a1 1 0 0 0 -.99-.86h-38a1 1 0 0 0 -.99.86l-2 14a1.006 1.006 0 0 0 .23.8 1.037 1.037 0 0 0 .76.34h17v3a1 1 0 0 0 1 1h2v38h-15v-11h4v-2h-2v-2h7a3.009 3.009 0 0 0 3-3v-12a3.009 3.009 0 0 0 -3-3h-20a3.009 3.009 0 0 0 -3 3v12a3.009 3.009 0 0 0 3 3h7v2h-2v2h4v12a1 1 0 0 0 1 1h38a1 1 0 0 0 1-1v-2h1a1 1 0 0 0 1-1v-3h3a3.009 3.009 0 0 0 3-3v-22a3.009 3.009 0 0 0 -3-3zm-54 16a1 1 0 0 1 -1-1v-12a1 1 0 0 1 1-1h20a1 1 0 0 1 1 1v12a1 1 0 0 1 -1 1zm9 4v-2h2v2zm37.85-31h-9.96l-.35-3h9.88zm-.72-5h-9.82l-.36-3h9.75zm-1-7 .29 2h-9.7l-.23-2zm-24.6 0h12.94l.24 2h-13.42zm-.47 4h13.88l.35 3h-14.58zm-2.95 8h-9.96l.43-3h9.88zm.58-5h-9.82l.43-3h9.75zm.59-5h-9.7l.29-2h9.64zm.84 10 .35-3h15.06l.35 3zm5.88 4v-2h4v2zm24 37h-2v-2h2zm6-5a1 1 0 0 1 -1 1h-12a1 1 0 0 1 -1-1v-22a1 1 0 0 1 1-1h12a1 1 0 0 1 1 1z"/><path d="m58 30h-10a1 1 0 0 0 -1 1v18a1 1 0 0 0 1 1h10a1 1 0 0 0 1-1v-18a1 1 0 0 0 -1-1zm-1 18h-8v-16h8z"/><path d="m53 35-3 5h3z"/><path d="m56 40h-3v5z"/><path d="m43 55-4-3v2h-2v-6h-2v7a1 1 0 0 0 1 1h3v2z"/><path d="m21 55 4 3v-2h3a1 1 0 0 0 1-1v-7h-2v6h-2v-2z"/></g></svg>