<svg height="512" viewBox="0 0 64 64" width="512" xmlns="http://www.w3.org/2000/svg"><g id="Fill_Outline" data-name="Fill Outline"><g id="Stroke_copy" data-name="Stroke copy"><g><path d="m3 55h12a0 0 0 0 1 0 0v4a2 2 0 0 1 -2 2h-8a2 2 0 0 1 -2-2v-4a0 0 0 0 1 0 0z" fill="#d0d8da"/><path d="m5 56v-1h-2v4a2 2 0 0 0 2 2h8a2 2 0 0 0 2-2v-1h-8a2 2 0 0 1 -2-2z" fill="#93999a"/><path d="m9 13h4v8h-4z" fill="#d0d8da"/><path d="m11 19a2 2 0 0 1 2-2v-4h-4v8h2z" fill="#93999a"/><path d="m48 28v-3l-6-3.375v-5.625h-5v2.812l-5-2.812-16 9v3h5v12h-3v4h28v-4h-3v-12z" fill="#d0d8da"/><path d="m43 35h-4a12 12 0 0 1 -12-12v-4.187l-11 6.187v3h5v12h-3v4h28v-4h-3z" fill="#93999a"/><path d="m37 32-3-2 1-6-8 8 3 2-1 6z" fill="#f9e109"/><g fill="#84d2f4"><path d="m9 7h-4l1-4h4z"/><path d="m13 7h-4l1-4h4z"/><path d="m17 7h-4l1-4h4z"/><path d="m8 11h-4l1-4h4z"/><path d="m12 11h-4l1-4h4z"/><path d="m16 11h-4l1-4h4z"/><path d="m7 15h-4l1-4h4z"/><path d="m11 15h-4l1-4h4z"/><path d="m15 15h-4l1-4h4z"/></g><g><path d="m44 48h16v9h-16z" fill="#57b7eb"/><path d="m50 48 10 9v-9z" fill="#84d2f4"/></g><path d="m61 9a6 6 0 1 0 -10 4.463v1.537h8v-1.537a5.976 5.976 0 0 0 2-4.463z" fill="#f9e109"/><rect fill="#d0d8da" height="4" rx="2" width="12" x="49" y="15"/><path d="m51 19h8a0 0 0 0 1 0 0 4 4 0 0 1 -4 4 4 4 0 0 1 -4-4 0 0 0 0 1 0 0z" fill="#93999a"/><path d="m59 13a5.992 5.992 0 0 1 -4.485-9.975 5.989 5.989 0 0 0 -3.515 10.438v1.537h8v-1.537a6.14 6.14 0 0 0 .481-.487c-.159.012-.319.024-.481.024z" fill="#fcbc04"/><path d="m51 15a2 2 0 0 0 0 4h8a2 2 0 0 0 2-2h-8a2 2 0 0 1 -2-2z" fill="#93999a"/><path d="m57 20h1.859a3.977 3.977 0 0 0 .141-1h-8a3.991 3.991 0 0 0 3.014 3.863 2.993 2.993 0 0 1 2.986-2.863z" fill="#656b76"/><path d="m34 33-3-1 4-8-8 8 3 2-1 6z" fill="#fcbc04"/><path d="m30 34-1 6 5.779-5.779a12.015 12.015 0 0 1 -5.626-4.374l-2.153 2.153z" fill="#fcbc04"/><path d="m30 34-1 6 4.523-6.332a12 12 0 0 1 -2.4-1.625l-.123-.043.025-.051a12.037 12.037 0 0 1 -1.872-2.1l-2.153 2.151z" fill="#e59730"/><path d="m17 7h-4l1-4z" fill="#57b7eb"/><path d="m13 7h-4l1-4z" fill="#57b7eb"/><path d="m9 7h-4l1-4z" fill="#57b7eb"/><path d="m16 11h-4l1-4z" fill="#57b7eb"/><path d="m12 11h-4l1-4z" fill="#57b7eb"/><path d="m8 11h-4l1-4z" fill="#57b7eb"/><path d="m15 15h-4l1-4z" fill="#57b7eb"/><path d="m11 15h-4l1-4z" fill="#57b7eb"/><path d="m7 15h-4l1-4z" fill="#57b7eb"/><circle cx="55" cy="24" fill="#f9e109" r="2"/><path d="m56 25a1.992 1.992 0 0 1 -1.82-2.82 2 2 0 1 0 2.64 2.64 1.99 1.99 0 0 1 -.82.18z" fill="#fcbc04"/><circle cx="44" cy="53" fill="#f9e109" r="2"/><path d="m45 54a1.992 1.992 0 0 1 -1.82-2.82 2 2 0 1 0 2.64 2.64 1.99 1.99 0 0 1 -.82.18z" fill="#fcbc04"/><circle cx="15" cy="59" fill="#f9e109" r="2"/><path d="m16 60a1.992 1.992 0 0 1 -1.82-2.82 2 2 0 1 0 2.64 2.64 1.99 1.99 0 0 1 -.82.18z" fill="#fcbc04"/></g></g><g id="Outline_copy" data-name="Outline copy"><g fill="#323232"><path d="m33.445 30.832 3 2a1 1 0 1 0 1.11-1.664l-2.462-1.642.893-5.361a1 1 0 0 0 -1.693-.872l-8 8a1 1 0 0 0 .152 1.539l2.462 1.642-.893 5.361a1 1 0 0 0 1.693.872l5.086-5.086a1 1 0 0 0 -1.414-1.414l-2.879 2.879.486-2.921a1 1 0 0 0 -.431-1l-1.985-1.32 4.93-4.931-.486 2.921a1 1 0 0 0 .431.997z"/><path d="m11.121 47.879a1 1 0 0 0 .707-1.707 4.093 4.093 0 0 0 -5.656 0 1 1 0 1 0 1.414 1.414 2.047 2.047 0 0 1 2.828 0 1 1 0 0 0 .707.293z"/><path d="m13.95 45.05a1 1 0 0 0 .707-1.707 8 8 0 0 0 -11.314 0 1 1 0 0 0 1.414 1.414 6 6 0 0 1 8.486 0 .993.993 0 0 0 .707.293z"/><circle cx="9" cy="50" r="1"/><path d="m60 14.184v-.294a7 7 0 1 0 -10 0v.295a2.981 2.981 0 0 0 .076 5.655 4.956 4.956 0 0 0 2.079 3.254 2.965 2.965 0 0 0 -.155.906 3 3 0 0 0 2 2.816v6.184h-10v-2a1 1 0 0 0 -2 0v9a1 1 0 0 0 1 1h2v2h-27a1 1 0 0 0 0 2h5v13h-5.184a3 3 0 0 0 -1.816-1.816v-1.184a1 1 0 0 0 -1-1h-1v-3a1 1 0 0 0 -2 0v3h-6v-3a1 1 0 0 0 -2 0v3h-1a1 1 0 0 0 -1 1v4a3 3 0 0 0 3 3h5a1 1 0 0 0 0-2h-5a1 1 0 0 1 -1-1v-3h10v.184a2.993 2.993 0 1 0 3.816 3.816h6.184a1 1 0 0 0 1-1v-14h9v8a1 1 0 0 0 1 1h6.184a3 3 0 0 0 1.816 1.816v1.184a1 1 0 0 0 1 1h3v2h-2a1 1 0 0 0 0 2h14a1 1 0 0 0 0-2h-2v-2h3a1 1 0 0 0 .394-.082c.023-.01.039-.03.061-.041a1.012 1.012 0 0 0 .268-.193c.006-.007.014-.009.02-.015a.874.874 0 0 0 .074-.125.958.958 0 0 0 .111-.188.915.915 0 0 0 .043-.213.979.979 0 0 0 .029-.143v-9a1 1 0 0 0 -1-1h-16a1 1 0 0 0 -1 1v2.184a3 3 0 0 0 -1.816 1.816h-5.184v-7h10a1 1 0 0 0 1-1v-4a1 1 0 0 0 -1-1h-2v-4h11a1 1 0 0 0 1-1v-7.184a3 3 0 0 0 2-2.816 2.965 2.965 0 0 0 -.155-.907 4.956 4.956 0 0 0 2.079-3.254 2.981 2.981 0 0 0 .076-5.655zm-45 45.816a1 1 0 1 1 1-1 1 1 0 0 1 -1 1zm40 0h-6v-2h6zm4-5.245-6.394-5.755h6.394zm-9.384-5.755 7.778 7h-12.394v-.184a2.982 2.982 0 0 0 0-5.632v-1.184zm-5.616 3a1 1 0 1 1 -1 1 1 1 0 0 1 1-1zm11-48a4.994 4.994 0 0 1 3.332 8.719 1 1 0 0 0 -.332.744v.537h-2v-2.586l1.707-1.707a1 1 0 0 0 -1.414-1.414l-1.293 1.293-1.293-1.293a1 1 0 0 0 -1.414 1.414l1.707 1.707v2.586h-2v-.537a1 1 0 0 0 -.333-.745 4.994 4.994 0 0 1 3.333-8.718zm-2.822 16h5.644a2.974 2.974 0 0 1 -1.176 1.5 2.974 2.974 0 0 0 -3.292 0 2.974 2.974 0 0 1 -1.176-1.5zm2.822 5a1 1 0 1 1 1-1 1 1 0 0 1 -1 1zm4-7h-8a1 1 0 0 1 0-2h8a1 1 0 0 1 0 2z"/><path d="m3 28h5v5a1 1 0 0 0 1 1h11v5h-2a1 1 0 0 0 0 2h3a1 1 0 0 0 1-1v-13a1 1 0 0 0 -1-1h-4v-.415l15-8.438 4.51 2.537a1 1 0 0 0 1.49-.871v-1.813h3v4.625a1 1 0 0 0 .51.872l5.49 3.088v.415h-4a1 1 0 0 0 0 2h5a1 1 0 0 0 1-1v-2a1 1 0 0 0 -.51-.872l-5.49-3.088v-5.04a1 1 0 0 0 -1-1h-5a1 1 0 0 0 -1 1v1.1l-3.509-1.975a1.007 1.007 0 0 0 -.981 0l-16 9a1 1 0 0 0 -.51.875v2a1 1 0 0 0 1 1h4v4h-10v-5a1 1 0 0 0 -1-1h-5v-4h9a1 1 0 0 0 1-1v-2a1 1 0 0 0 -2 0v1h-2v-4h5a1 1 0 0 0 .97-.757l3-12a1 1 0 0 0 -.97-1.243h-12a1 1 0 0 0 -.97.757l-3 12a1 1 0 0 0 .97 1.243h5v4h-5a1 1 0 0 0 -1 1v6a1 1 0 0 0 1 1zm2.781-20h1.938l-.5 2h-1.938zm6.938-4-.5 2h-1.938l.5-2zm2.5 6h-1.938l.5-2h1.938zm-6.938 4 .5-2h1.938l-.5 2zm2.938-4h-1.938l.5-2h1.938zm3 4h-1.938l.5-2h1.938zm2-8h-1.938l.5-2h1.938zm-9.438-2h1.938l-.5 2h-1.938zm-2 8h1.938l-.5 2h-1.938z"/></g></g></g></svg>