<?xml version="1.0" encoding="iso-8859-1"?>
<!-- Generator: Adobe Illustrator 19.0.0, SVG Export Plug-In . SVG Version: 6.00 Build 0)  -->
<svg version="1.1" id="Capa_1" xmlns="http://www.w3.org/2000/svg" xmlns:xlink="http://www.w3.org/1999/xlink" x="0px" y="0px"
	 viewBox="0 0 480 480" style="enable-background:new 0 0 480 480;" xml:space="preserve">
<rect x="192" y="288" style="fill:#D0DFEA;" width="184" height="184"/>
<path style="fill:#FEFEFE;" d="M376,472h96V288l-48-40l-48,40V472z M400,376l48-40L400,376h48l-48,40l48-40H400z"/>
<g>
	<path style="fill:#F1E200;" d="M392,160l-24-68.604c0-9.087,10.128-14.507,17.689-9.467c3.822,2.548,8.8,2.548,12.622,0
		C405.872,76.889,416,82.31,416,91.396L392,160h16v1.84c0.32-0.24,0.64-0.56,0.96-0.88c4.32-4.32,7.04-10.32,7.04-16.96
		c0-8.16,3.44-15.84,9.28-21.52c10.8-10.32,16.72-25.6,14.08-42.24c-3.28-20.8-20.64-37.44-41.6-39.92C368.72,36.96,344,59.6,344,88
		c0,13.84,5.84,26.24,15.2,35.04c5.76,5.36,8.8,13.04,8.8,20.96c0,6.64,2.72,12.64,7.04,16.96c0.32,0.32,0.64,0.64,0.96,0.88V160
		H392z"/>
	<path style="fill:#F1E200;" d="M398.311,81.93c-3.822,2.548-8.8,2.548-12.622,0C378.128,76.889,368,82.31,368,91.396L392,160
		l24-68.604C416,82.31,405.872,76.889,398.311,81.93z"/>
	<polygon style="fill:#F1E200;" points="408,161.84 408,160 392,160 376,160 376,161.84 376,192 392,192 408,192 	"/>
	<polygon style="fill:#F1E200;" points="128,8 112,40 144,40 	"/>
	<polygon style="fill:#F1E200;" points="68.506,61.213 33.438,54.121 48.805,86.43 	"/>
	<polygon style="fill:#F1E200;" points="46.485,164.814 38.743,133.764 11.564,157.03 	"/>
	<polygon style="fill:#F1E200;" points="77.59,201.884 79.191,237.625 106.824,214.9 	"/>
	<polygon style="fill:#F1E200;" points="183.44,198.188 155.187,213.211 184.336,233.954 	"/>
	<polygon style="fill:#F1E200;" points="211.885,159.038 246.177,148.838 217.441,127.524 	"/>
	<polygon style="fill:#F1E200;" points="204.103,81.007 217.177,47.704 182.69,57.226 	"/>
</g>
<polygon style="fill:#A0D92A;" points="88,384 88,344 64,344 48,344 48,384 "/>
<rect x="8" y="384" style="fill:#25C656;" width="40" height="40"/>
<g>
	<rect x="8" y="344" style="fill:#2D9CCA;" width="40" height="40"/>
	<rect x="48" y="384" style="fill:#2D9CCA;" width="40" height="40"/>
	<rect x="120" y="344" style="fill:#2D9CCA;" width="40" height="40"/>
</g>
<rect x="160" y="344" style="fill:#A0D92A;" width="40" height="40"/>
<rect x="120" y="384" style="fill:#25C656;" width="40" height="40"/>
<g>
	<rect x="160" y="384" style="fill:#2D9CCA;" width="40" height="40"/>
	<rect x="272" y="384" style="fill:#2D9CCA;" width="40" height="40"/>
</g>
<rect x="232" y="384" style="fill:#25C656;" width="40" height="40"/>
<rect x="232" y="344" style="fill:#2D9CCA;" width="40" height="40"/>
<g>
	<rect x="272" y="344" style="fill:#A0D92A;" width="40" height="40"/>
	<polygon style="fill:#A0D92A;" points="192,288 376,288 424,248 392,248 232,248 	"/>
</g>
<path style="fill:#DBCE00;" d="M184,128c0-29.969-23.561-54.368-53.159-55.856l-1.324,111.78C159.736,183.112,184,158.416,184,128z"
	/>
<path style="fill:#F1E200;" d="M128,72c-30.928,0-56,25.072-56,56c0,30.928,25.072,56,56,56v-8v8c0.512,0,1.008-0.063,1.517-0.077
	l1.324-111.78C129.894,72.096,128.959,72,128,72z"/>
<path d="M429.121,241.852c-0.081-0.067-0.183-0.088-0.266-0.151c-0.496-0.382-1.046-0.666-1.619-0.923
	c-0.231-0.103-0.438-0.255-0.676-0.335c-0.813-0.276-1.669-0.441-2.56-0.441h-24v-40h8c4.418,0,8-3.578,8-8v-27.064
	c5.099-5.83,8-13.139,8-20.936c0-5.867,2.426-11.461,6.832-15.766c13.375-12.797,19.363-30.742,16.43-49.242
	c-3.867-24.523-23.84-43.695-48.586-46.617c-15.953-1.836-31.98,3.188-43.906,13.813C342.84,56.813,336,72.055,336,88
	c0,15.617,6.293,30.125,17.75,40.898c3.973,3.695,6.25,9.195,6.25,15.102c0,7.797,2.901,15.106,8,20.936V192c0,4.422,3.582,8,8,8h8
	v40H232c-2.121,0-4.156,0.844-5.656,2.344l-40,40c-1.529,1.529-2.267,3.577-2.269,5.656H184v32h16v-24h168v168h-56v16h64h96
	c4.418,0,8-3.578,8-8V288c0-2.375-1.055-4.625-2.879-6.148L429.121,241.852z M400,184h-16v-16h16V184z M376,144
	c0-2.805-0.36-5.548-0.948-8.219L380.727,152h-2.578C376.746,149.594,376,146.852,376,144z M405.855,152h-2.582l5.988-17.118
	C408.511,137.849,408,140.88,408,144C408,146.844,407.258,149.578,405.855,152z M392,135.773l-15.867-45.359
	c0.313-1.109,1.125-1.711,1.652-1.992c0.672-0.359,2.004-0.805,3.469,0.164c6.523,4.359,14.965,4.344,21.496,0
	c1.469-0.977,2.801-0.523,3.465-0.164c0.527,0.281,1.34,0.883,1.652,1.992L392,135.773z M352,88
	c0-11.383,4.891-22.273,13.414-29.867c8.645-7.711,19.793-11.203,31.406-9.867c17.355,2.047,31.926,16.023,34.637,33.227
	c2.105,13.25-2.164,26.078-11.703,35.203c-0.016,0.016-0.035,0.031-0.051,0.047c-3.496,3.398-6.176,7.338-8.141,11.566
	l11.989-34.269c0.297-0.852,0.449-1.742,0.449-2.641c0-7.156-3.922-13.703-10.234-17.086c-6.316-3.391-13.941-3.016-19.887,0.961
	c-1.141,0.75-2.613,0.75-3.754,0c-5.953-3.969-13.578-4.344-19.891-0.961S360,84.242,360,91.398c0,0.898,0.152,1.789,0.449,2.641
	l11.836,33.833c-1.896-4-4.392-7.673-7.606-10.661C356.504,109.523,352,99.148,352,88z M235.313,256h166.588l-28.8,24H211.313
	L235.313,256z M464,464h-80V291.75l10-8.334l30.001-25.001L464,291.75V464z"/>
<rect x="384" width="16" height="16"/>
<rect x="327.433" y="23.43" transform="matrix(-0.707 0.7072 -0.7072 -0.707 594.806 -183.5779)" width="16" height="16"/>
<rect x="304" y="80" width="16" height="16"/>
<rect x="327.427" y="136.56" transform="matrix(-0.7071 0.7071 -0.7071 -0.7071 674.8289 9.5978)" width="16" height="16"/>
<rect x="440.555" y="136.57" transform="matrix(-0.707 0.7072 -0.7072 -0.707 867.9205 -70.4544)" width="16" height="16"/>
<rect x="464" y="80" width="16" height="16"/>
<rect x="440.563" y="23.437" transform="matrix(-0.7071 0.7071 -0.7071 -0.7071 787.9734 -263.516)" width="16" height="16"/>
<path d="M112,48h32c2.773,0,5.348-1.438,6.805-3.797s1.59-5.305,0.352-7.781l-16-32C132.445-1,123.555-1,120.844,4.422l-16,32
	c-1.238,2.477-1.105,5.422,0.352,7.781S109.227,48,112,48z M128,25.891L131.055,32h-6.109L128,25.891z"/>
<path d="M41.582,89.867c1.188,2.5,3.59,4.211,6.348,4.516c0.293,0.031,0.586,0.047,0.875,0.047c2.445,0,4.777-1.125,6.305-3.078
	l19.699-25.219c1.707-2.18,2.16-5.094,1.199-7.695s-3.199-4.516-5.918-5.07l-35.066-7.094c-2.949-0.555-6.023,0.531-7.891,2.922
	c-1.863,2.383-2.223,5.625-0.918,8.359L41.582,89.867z M54.23,66.484l-3.762,4.82l-2.934-6.172L54.23,66.484z"/>
<path d="M9.828,164.836l34.918,7.781c0.578,0.133,1.16,0.195,1.738,0.195c2.133,0,4.207-0.852,5.727-2.414
	c1.938-1.984,2.707-4.828,2.035-7.523l-7.742-31.047c-0.672-2.688-2.688-4.836-5.328-5.68c-2.629-0.852-5.535-0.266-7.637,1.539
	L6.363,150.953c-2.301,1.969-3.293,5.07-2.559,8.016C4.539,161.906,6.867,164.18,9.828,164.836z M34.113,148.258l1.477,5.93
	l-6.668-1.484L34.113,148.258z"/>
<path d="M111.906,221.078c2.141-1.766,3.219-4.508,2.844-7.258c-0.371-2.742-2.141-5.102-4.672-6.227l-29.234-13.016
	c-2.527-1.133-5.461-0.875-7.762,0.695c-2.289,1.563-3.609,4.195-3.484,6.969l1.602,35.742c0.137,3.023,1.969,5.719,4.738,6.945
	c1.043,0.469,2.152,0.695,3.254,0.695c1.82,0,3.625-0.625,5.082-1.82L111.906,221.078z M91.746,216.945l-5.277,4.336l-0.309-6.828
	L91.746,216.945z"/>
<path d="M188.09,241.016c2.676-1.422,4.32-4.234,4.242-7.266l-0.895-35.766c-0.066-2.766-1.566-5.305-3.961-6.703
	c-2.395-1.391-5.352-1.461-7.789-0.156l-28.258,15.023c-2.445,1.297-4.047,3.773-4.227,6.547c-0.18,2.766,1.086,5.43,3.348,7.031
	l29.148,20.742c1.379,0.984,3.004,1.484,4.637,1.484C185.621,241.953,186.914,241.641,188.09,241.016z M170.371,214.195l5.395-2.867
	l0.172,6.828L170.371,214.195z"/>
<path d="M214.48,120.094c-2.574,1.023-4.438,3.313-4.918,6.039l-5.559,31.516c-0.48,2.734,0.484,5.516,2.555,7.359
	c1.484,1.328,3.387,2.031,5.324,2.031c0.762,0,1.531-0.109,2.281-0.336l34.293-10.203c2.906-0.859,5.07-3.289,5.598-6.273
	s-0.68-6.008-3.113-7.813l-28.734-21.313C219.984,119.445,217.066,119.07,214.48,120.094z M228.559,145.734l-6.547,1.945
	l1.059-6.023L228.559,145.734z"/>
<path d="M198.156,86.359c1.531,1.703,3.699,2.648,5.945,2.648c0.473,0,0.953-0.039,1.43-0.125c2.727-0.5,5.004-2.367,6.016-4.953
	l13.074-33.305c1.109-2.82,0.527-6.023-1.5-8.273c-2.027-2.258-5.16-3.164-8.074-2.359l-34.484,9.523
	c-2.672,0.734-4.773,2.805-5.551,5.469s-0.121,5.531,1.734,7.594L198.156,86.359z M203.883,59.672l-2.496,6.359l-4.09-4.539
	L203.883,59.672z"/>
<path d="M128,192c35.289,0,64-28.711,64-64s-28.711-64-64-64s-64,28.711-64,64S92.711,192,128,192z M128,80
	c26.469,0,48,21.531,48,48s-21.531,48-48,48s-48-21.531-48-48S101.531,80,128,80z"/>
<path d="M442.879,329.852l-48,40c-2.586,2.156-3.547,5.703-2.402,8.875c1.148,3.164,4.156,5.273,7.523,5.273h25.902l-31.023,25.852
	l10.242,12.297l48-40c2.586-2.156,3.547-5.703,2.402-8.875C454.375,370.109,451.367,368,448,368h-25.902l31.023-25.852
	L442.879,329.852z"/>
<path d="M88,336H8c-4.418,0-8,3.578-8,8v80c0,4.422,3.582,8,8,8h32v32H24v16h48v-16H56v-32h32c4.418,0,8-3.578,8-8v-80
	C96,339.578,92.418,336,88,336z M80,376H56v-24h24V376z M40,352v24H16v-24H40z M16,392h24v24H16V392z M56,416v-24h24v24H56z"/>
<path d="M200,336h-80c-4.418,0-8,3.578-8,8v80c0,4.422,3.582,8,8,8h32v32h-16v16h48v-16h-16v-32h32c4.418,0,8-3.578,8-8v-80
	C208,339.578,204.418,336,200,336z M192,376h-24v-24h24V376z M152,352v24h-24v-24H152z M128,392h24v24h-24V392z M168,416v-24h24v24
	H168z"/>
<path d="M280,432h32c4.418,0,8-3.578,8-8v-80c0-4.422-3.582-8-8-8h-80c-4.418,0-8,3.578-8,8v80c0,4.422,3.582,8,8,8h32v32h-16v16h48
	v-16h-16V432z M280,416v-24h24v24H280z M304,376h-24v-24h24V376z M264,352v24h-24v-24H264z M240,392h24v24h-24V392z"/>
<rect x="120" y="240" width="16" height="16"/>
<rect x="120" y="272" width="16" height="16"/>
<rect x="120" y="304" width="16" height="16"/>
<rect x="143.377" y="238.069" transform="matrix(-0.9397 0.3421 -0.3421 -0.9397 377.7963 425.5024)" width="15.992" height="16"/>
<rect x="154.325" y="268.143" transform="matrix(-0.9397 0.3421 -0.3421 -0.9397 409.3201 480.0888)" width="15.992" height="16"/>
<rect x="165.273" y="298.238" transform="matrix(-0.9397 0.3421 -0.3421 -0.9397 440.8519 534.7189)" width="15.992" height="16"/>
<rect x="96.632" y="238.062" transform="matrix(-0.3421 0.9397 -0.9397 -0.3421 371.639 231.9209)" width="16" height="15.992"/>
<rect x="85.683" y="268.144" transform="matrix(-0.3419 0.9397 -0.9397 -0.3419 385.2123 282.5143)" width="16" height="15.992"/>
<rect x="74.764" y="298.189" transform="matrix(-0.3421 0.9397 -0.9397 -0.3421 398.7878 333.1672)" width="16" height="15.992"/>
<g>
</g>
<g>
</g>
<g>
</g>
<g>
</g>
<g>
</g>
<g>
</g>
<g>
</g>
<g>
</g>
<g>
</g>
<g>
</g>
<g>
</g>
<g>
</g>
<g>
</g>
<g>
</g>
<g>
</g>
</svg>
