<svg id="Capa_1" enable-background="new 0 0 512.01 512.01" height="512" viewBox="0 0 512.01 512.01" width="512" xmlns="http://www.w3.org/2000/svg"><g><path d="m15.008 466.005h421c8.291 0 15-6.709 15-15s-6.709-15-15-15h-15v-15c0-8.291-6.709-15-15-15h-45v-30h-30v30h-45c-8.291 0-15 6.709-15 15v15h-90v-15c0-8.291-6.709-15-15-15h-45v-30h-30v30h-46c-8.291 0-15 6.709-15 15v15h-15c-8.291 0-15 6.709-15 15s6.709 15 15 15z"/><path d="m129.522 156.005h-89.996l-17.778 80h89.996z"/><path d="m232.489 236.005 17.778-80h-90.003l-17.778 80z"/><path d="m270.656 64.257c.981-4.438-.103-9.082-2.944-12.642-2.856-3.545-7.148-5.61-11.704-5.61h-71.298l-17.78 80h90.004z"/><path d="m15.008 346.005h72.29l17.78-80h-89.997l-14.722 61.748c-2.063 9.333 5.025 18.252 14.649 18.252z"/><path d="m153.968 46.005h-77.96c-7.031 0-13.126 4.878-14.648 11.748l-15.167 68.252h89.996z"/><path d="m118.041 346.005h77.966c7.031 0 13.124-4.878 14.648-11.748l15.167-68.252h-90.004z"/><path d="m351.744 236.005 17.778-80h-89.996l-17.778 80z"/><path d="m472.489 236.005 17.778-80h-90.003l-17.778 80z"/><path d="m511.656 64.257c.981-4.438-.103-9.082-2.944-12.642-2.856-3.545-7.148-5.61-11.704-5.61h-72.298l-17.78 80h90.004z"/><path d="m241.359 327.753c-2.064 9.333 5.024 18.252 14.648 18.252h71.29l17.78-80h-89.996z"/><path d="m393.968 46.005h-77.961c-7.031 0-13.126 4.878-14.648 11.748l-15.167 68.252h89.996z"/><path d="m358.041 346.005h77.966c7.031 0 13.124-4.878 14.648-11.748l15.167-68.252h-90.004z"/></g></svg>