<svg height="512" viewBox="0 0 64 64" width="512" xmlns="http://www.w3.org/2000/svg"><g id="Flat"><g id="Color"><g><path d="m37 37h24v24h-24z" fill="#d0d8da"/><path d="m37 37v2h18v3a13 13 0 0 1 -13 13h-5v6h24v-24z" fill="#93999a"/><path d="m13 37h24v24h-24z" fill="#93999a"/><path d="m31 37v5a13 13 0 0 1 -13 13h-5v6h24v-24z" fill="#656b76"/><path d="m53 19h4v15h-4z" fill="#57b7eb" transform="matrix(-1 0 0 -1 110 53)"/><path d="m55 24v-5h2v15h-4v-6.555a3.982 3.982 0 0 0 2-3.445z" fill="#4891d3"/><path d="m41 41h4v8h-4z" fill="#aae1f9"/><path d="m53 41h4v8h-4z" fill="#aae1f9"/><path d="m55 42a12.922 12.922 0 0 1 -2 6.906v.094h4v-8h-2z" fill="#57b7eb"/><path d="m27 25h-6l4-6h6z" fill="#aae1f9"/><path d="m33 25h-6l4-6h6z" fill="#aae1f9"/><path d="m39 25h-6l4-6h6z" fill="#aae1f9"/><path d="m45 25h-6l4-6h6z" fill="#aae1f9"/><path d="m23 31h-6l4-6h6z" fill="#aae1f9"/><path d="m29 31h-6l4-6h6z" fill="#aae1f9"/><path d="m35 31h-6l4-6h6z" fill="#aae1f9"/><path d="m41 31h-6l4-6h6z" fill="#aae1f9"/><path d="m19 37h-6l4-6h6z" fill="#aae1f9"/><path d="m25 37h-6l4-6h6z" fill="#aae1f9"/><path d="m31 37h-6l4-6h6z" fill="#aae1f9"/><path d="m37 37h-6l4-6h6z" fill="#aae1f9"/><path d="m37 37h24l-12-18z" fill="#f9e109"/><path d="m25 42h12v14h-12z" fill="#f9e109"/><path d="m25 51.233v4.767h12v-14h-7.051a12.963 12.963 0 0 1 -4.949 9.233z" fill="#fcbc04"/><path d="m46 53h6v8h-6z" fill="#4891d3"/><circle cx="7" cy="7" fill="#f9e109" r="4"/><g fill="#57b7eb"><path d="m45 25h-6l10-6z"/><path d="m39 25h-6l10-6z"/><path d="m33 25h-6l10-6z"/><path d="m27 25h-6l10-6z"/><path d="m41 31h-6l10-6z"/><path d="m35 31h-6l10-6z"/><path d="m29 31h-6l10-6z"/><path d="m23 31h-6l10-6z"/><path d="m37 37h-6l10-6z"/><path d="m31 37h-6l10-6z"/><path d="m25 37h-6l10-6z"/><path d="m19 37h-6l10-6z"/></g><path d="m45.789 35a6 6 0 0 0 4.992-9.328l-3.114-4.672 1.333-2 12 18h-24l1.333-2z" fill="#fcbc04"/><path d="m56.333 37h-14.666l7.333-11z" fill="#fcbc04"/><path d="m45.789 35a5.98 5.98 0 0 0 5.9-4.963l4.644 6.963h-14.666l1.333-2z" fill="#e59730"/><path d="m50 29 5.333 8h1l-7.333-11-7.333 11h3z" fill="#e59730"/><path d="m35 42v6a6 6 0 0 1 -6 6h-4v2h12v-14z" fill="#e59730"/><path d="m37 49h24v2h-24z" fill="#93999a"/><path d="m8.64 3.36a3.985 3.985 0 0 1 -5.28 5.28 3.995 3.995 0 1 0 5.28-5.28z" fill="#fcbc04"/><path d="m46 53h5a0 0 0 0 1 0 0v2a5 5 0 0 1 -5 5 0 0 0 0 1 0 0v-7a0 0 0 0 1 0 0z" fill="#57b7eb"/><path d="m48.906 53h-2.906v1.366a12.942 12.942 0 0 0 2.906-1.366z" fill="#aae1f9"/><path d="m37 39-24-2h24z" fill="#656b76"/><path d="m56 41v4a3 3 0 0 1 -3 3v1h4v-8z" fill="#fcbc04"/><path d="m56 41v4a3 3 0 0 1 -2.456 2.945c-.17.328-.348.65-.544.961v.094h4v-8z" fill="#4891d3"/><path d="m44 41v4a3 3 0 0 1 -3 3v1h4v-8z" fill="#57b7eb"/><path d="m21 53h-4a1 1 0 0 1 -1-1v-15h2v14h2v-6a1 1 0 0 1 1-1h4v2h-3v6a1 1 0 0 1 -1 1z" fill="#fcbc04"/><path d="m31 53a1 1 0 0 1 -.831-1.555l.962-1.445h-2.131a1 1 0 0 1 -.832-1.555l2-3a1 1 0 0 1 1.664 1.11l-.963 1.445h2.131a1 1 0 0 1 .832 1.555l-2 3a1 1 0 0 1 -.832.445z" fill="#f9e109"/><path d="m48 45h2v4h-2z" fill="#e59730"/><path d="m52 45h2v4h-2z" fill="#e59730"/><path d="m56 45h2v4h-2z" fill="#e59730"/><path d="m40 45h2v4h-2z" fill="#e59730"/><path d="m44 45h2v4h-2z" fill="#e59730"/><path d="m19 20a1 1 0 0 1 -.707-.293l-6-6a1 1 0 0 1 1.414-1.414l6 6a1 1 0 0 1 -.707 1.707z" fill="#f9e109"/><path d="m25 14a1 1 0 0 1 -.372-.071l-10-4a1 1 0 0 1 .744-1.858l10 4a1 1 0 0 1 -.372 1.929z" fill="#f9e109"/><path d="m14 30a1 1 0 0 1 -.961-.726l-4-14a1 1 0 1 1 1.922-.548l4 14a1 1 0 0 1 -.686 1.236 1.053 1.053 0 0 1 -.275.038z" fill="#f9e109"/><path d="m25 6h-9a1 1 0 0 1 0-2h9a1 1 0 0 1 0 2z" fill="#f9e109"/><path d="m6 25a1 1 0 0 1 -1-1v-8a1 1 0 0 1 2 0v8a1 1 0 0 1 -1 1z" fill="#f9e109"/><path d="m37 44h24v2h-24z" fill="#fcbc04"/><path d="m37 48h24v2h-24z" fill="#fcbc04"/><path d="m18 37.417v-.417h-2v.25z" fill="#e59730"/></g></g></g></svg>