<svg id="Layer_1" enable-background="new 0 0 512 512" height="512" viewBox="0 0 512 512" width="512" xmlns="http://www.w3.org/2000/svg"><g><path d="m256 110.333c30.419 0 55.167-24.748 55.167-55.167s-24.748-55.166-55.167-55.166-55.167 24.748-55.167 55.167 24.748 55.166 55.167 55.166zm0-80.333c13.877 0 25.167 11.29 25.167 25.167s-11.29 25.166-25.167 25.166-25.167-11.29-25.167-25.167 11.29-25.166 25.167-25.166z"/><path d="m241 159.6v16.066c0 8.284 6.716 15 15 15s15-6.716 15-15v-16.066c0-8.284-6.716-15-15-15s-15 6.716-15 15z"/><path d="m135.5 70.167h16.067c8.284 0 15-6.716 15-15s-6.716-15-15-15h-16.067c-8.284 0-15 6.716-15 15s6.716 15 15 15z"/><path d="m360.434 70.167h16.066c8.284 0 15-6.716 15-15s-6.716-15-15-15h-16.066c-8.284 0-15 6.716-15 15s6.715 15 15 15z"/><path d="m510.416 426.025-96.4-192.8c-2.54-5.082-7.734-8.292-13.416-8.292h-289.2c-5.682 0-10.875 3.21-13.417 8.292l-96.4 192.8c-2.325 4.649-2.076 10.172.657 14.594s7.561 7.114 12.76 7.114h177.8v34.267h-49.267c-8.284 0-15 6.716-15 15s6.716 15 15 15h224.934c8.284 0 15-6.716 15-15s-6.716-15-15-15h-49.267v-34.267h177.8c5.198 0 10.026-2.692 12.76-7.114 2.733-4.422 2.981-9.944.656-14.594zm-347.457-8.292h-123.689l17.133-34.267h112.265zm10.71-64.266h-102.265l17.133-34.267h90.846zm10.715-64.267h-80.847l17.133-34.267h69.423zm36.123-34.267h70.985l5.71 34.267h-82.405zm-10.71 64.267h92.405l5.715 34.267h-103.834zm79.403 162.8h-66.4v-34.267h66.4zm-95.827-64.267 5.71-34.267h113.835l5.709 34.267zm128.533-162.8h69.423l17.134 34.267h-80.848zm10.71 64.267h90.847l17.133 34.267h-102.265zm16.424 98.533-5.709-34.267h112.265l17.134 34.267z"/><path d="m160.184 150.983c5.867 5.866 15.363 5.849 21.213 0l11.367-11.367c5.857-5.858 5.857-15.355 0-21.213-5.858-5.857-15.355-5.857-21.213 0l-11.367 11.367c-5.858 5.857-5.858 15.355 0 21.213z"/><path d="m330.603 150.982c5.856 5.857 15.355 5.859 21.213 0 5.858-5.858 5.858-15.355 0-21.213l-11.367-11.367c-5.857-5.858-15.355-5.858-21.213 0s-5.858 15.355 0 21.213z"/></g></svg>