<?xml version="1.0" encoding="iso-8859-1"?>
<!-- Generator: Adobe Illustrator 19.0.0, SVG Export Plug-In . SVG Version: 6.00 Build 0)  -->
<svg version="1.1" id="Capa_1" xmlns="http://www.w3.org/2000/svg" xmlns:xlink="http://www.w3.org/1999/xlink" x="0px" y="0px"
	 viewBox="0 0 480.009 480.009" style="enable-background:new 0 0 480.009 480.009;" xml:space="preserve">
<path style="fill:#88B337;" d="M159.681,181.508c14.466-16.556,12.771-41.704-3.785-56.17c-7.303-6.381-16.685-9.877-26.383-9.83
	c-0.72,0-1.392,0.168-2.104,0.208c7.064-20.932-4.178-43.626-25.11-50.69c-20.932-7.064-43.626,4.178-50.69,25.11
	c-2.8,8.297-2.8,17.284,0,25.58c-0.712,0-1.384-0.208-2.096-0.208c-21.99-0.1-39.897,17.645-39.997,39.634
	c-0.044,9.691,3.448,19.065,9.821,26.366c-13.711,15.643-12.987,39.226,1.656,54c-15.464,15.776-15.211,41.102,0.566,56.566
	c7.466,7.318,17.5,11.422,27.954,11.434h80c22.091-0.03,39.976-17.962,39.946-40.054c-0.014-10.452-4.118-20.482-11.434-27.946
	C172.68,220.74,173.403,197.147,159.681,181.508L159.681,181.508z"/>
<path style="fill:#DEDEDE;" d="M264.009,472.004h-256v-160l128-128l128,128V472.004z"/>
<path style="fill:#CFCFCF;" d="M264.009,312.004h208v160h-208V312.004z"/>
<path style="fill:#4398D1;" d="M136.009,184.004l128,128h208l-128-128H136.009z"/>
<path style="fill:#3E8CC7;" d="M472.009,312.004l-116-116l-104,104l12,12H472.009z"/>
<path style="fill:#3570AB;" d="M96.009,360.004h80v112h-80V360.004z"/>
<g>
	<g>
		<path id="SVGCleanerId_0" style="fill:#FDB62F;" d="M384.009,0.004h16v16h-16V0.004z"/>
	</g>
	<g>
		<path id="SVGCleanerId_1" style="fill:#FDB62F;" d="M384.009,160.004h16v16h-16V160.004z"/>
	</g>
	<g>
		<path id="SVGCleanerId_2" style="fill:#FDB62F;" d="M304.009,80.004h16v16h-16V80.004z"/>
	</g>
	<g>
		<path id="SVGCleanerId_3" style="fill:#FDB62F;" d="M464.009,80.004h16v16h-16V80.004z"/>
	</g>
	<g>
		<path id="SVGCleanerId_4" style="fill:#FDB62F;" d="M324.128,31.435l11.314-11.314l11.314,11.314l-11.314,11.314L324.128,31.435z"
			/>
	</g>
	<g>
		<path id="SVGCleanerId_5" style="fill:#FDB62F;" d="M437.263,144.571l11.314-11.314l11.314,11.314l-11.314,11.314L437.263,144.571
			z"/>
	</g>
	<g>
		<path id="SVGCleanerId_6" style="fill:#FDB62F;" d="M324.127,144.571l11.314-11.314l11.314,11.314l-11.314,11.314L324.127,144.571
			z"/>
	</g>
	<g>
		<path id="SVGCleanerId_7" style="fill:#FDB62F;" d="M437.263,31.435l11.314-11.314l11.314,11.314l-11.314,11.314L437.263,31.435z"
			/>
	</g>
	<circle style="fill:#FDB62F;" cx="392.009" cy="88.004" r="48"/>
</g>
<path style="fill:#F7962E;" d="M352.809,115.684c15.071,21.809,44.969,27.27,66.777,12.199
	c21.809-15.071,27.27-44.969,12.199-66.777c-0.926-1.34-1.919-2.631-2.976-3.87C409.553,83.554,383.188,103.831,352.809,115.684z"/>
<path style="fill:#3570AB;" d="M373.761,272.004h58.248l-16-16h-57.6l-23-24h56.6l-16-16h-55.92l-30.664-32h-22.168l30.672,32
	h-41.712l-30.72-32h-22.176l30.72,32h-66.032l16,16h65.392l23.04,24h-64.432l16,16h63.792l38.4,40h22.176l-38.4-40h41.6l38.336,40
	h22.16L373.761,272.004z M294.617,256.004l-23.04-24h41.68l23,24H294.617z"/>
<path d="M479.497,309.436c-0.088-0.256-0.152-0.496-0.264-0.744c-0.389-0.87-0.931-1.664-1.6-2.344l-128-128
	c-1.492-1.493-3.514-2.335-5.624-2.344h-172.56c2.971-6.251,4.528-13.079,4.56-20c-0.031-23.51-17.059-43.55-40.256-47.376
	c0.168-1.536,0.253-3.079,0.256-4.624c0-26.51-21.49-48-48-48s-48,21.49-48,48c0.003,1.545,0.088,3.088,0.256,4.624
	c-26.05,4.143-43.808,28.62-39.665,54.669c1.062,6.678,3.53,13.054,7.241,18.707c-10.87,16.499-10.389,38.004,1.208,54
	c-13.274,18.326-11.795,43.468,3.536,60.112L2.353,306.348c-1.5,1.5-2.344,3.534-2.344,5.656v160c0,4.418,3.582,8,8,8h464
	c4.418,0,8-3.582,8-8v-160c0-0.168-0.088-0.32-0.096-0.496C479.866,310.802,479.726,310.106,479.497,309.436L479.497,309.436z
	 M267.321,304.004l-32-32h52.224l30,32H267.321z M212.545,192.004l22.504,24h-55.728l-24-24H212.545z M404.697,256.004h-46.224
	l-22.464-24h44.728L404.697,256.004z M336.545,256.004h-42.072l-22.504-24h42.08L336.545,256.004z M256.969,216.004l-22.496-24
	h42.072l22.504,24H256.969z M250.049,232.004l22.496,24h-53.224l-24-24H250.049z M339.473,304.004l-30-32h42.072l30,32H339.473z
	 M403.473,304.004l-30-32h47.2l32,32H403.473z M364.697,216.004h-43.728l-22.496-24h42.224L364.697,216.004z M25.201,230.404
	c-11.746-11.809-12.316-30.704-1.304-43.2c2.561-2.994,2.561-7.406,0-10.4c-5.059-5.751-7.862-13.141-7.888-20.8
	c0-17.673,14.327-32,32-32h0.08c0.52,0.072,1.048,0.136,1.6,0.16c4.412,0.232,8.177-3.157,8.409-7.569
	c0.05-0.958-0.072-1.917-0.361-2.831c-1.084-3.143-1.667-6.436-1.728-9.76c0-17.673,14.327-32,32-32s32,14.327,32,32
	c-0.056,3.32-0.634,6.611-1.712,9.752c-1.332,4.213,1.004,8.707,5.217,10.039c0.914,0.289,1.873,0.411,2.831,0.361
	c0.557-0.015,1.113-0.066,1.664-0.152c17.673,0,32,14.327,32,32c-0.014,7.299-2.558,14.367-7.2,20h-16.8
	c-0.933,0.016-1.856,0.194-2.728,0.528c-0.096,0.04-0.208,0-0.312,0.08s-0.28,0.2-0.44,0.28c-0.64,0.314-1.234,0.712-1.768,1.184
	c-0.12,0.104-0.288,0.152-0.408,0.272l-34.344,34.344v-84.688c0-4.418-3.582-8-8-8s-8,3.582-8,8v44.688l-18.344-18.344
	c-3.178-3.069-8.243-2.981-11.312,0.197c-2.994,3.1-2.994,8.015,0,11.115l29.656,29.656v33.368l-8,8l-10.344-10.336
	c-3.178-3.069-8.243-2.981-11.312,0.197c-2.994,3.1-2.994,8.015,0,11.115l10.344,10.344l-36.84,36.8
	c-5.059-5.748-7.849-13.143-7.848-20.8c-0.009-8.386,3.295-16.437,9.192-22.4C28.25,238.494,28.25,233.515,25.201,230.404
	L25.201,230.404z M104.009,464.004v-96h64v96H104.009z M256.009,464.004h-72v-104c0-4.418-3.582-8-8-8h-80c-4.418,0-8,3.582-8,8v104
	h-72V315.316l13.76-13.76l63.888-63.888l42.352-42.352l120,120V464.004z M272.009,464.004v-144h192v144H272.009z"/>
<path d="M448.009,88.004c0-30.928-25.072-56-56-56s-56,25.072-56,56s25.072,56,56,56C422.92,143.965,447.969,118.916,448.009,88.004
	z M392.009,128.004c-22.091,0-40-17.909-40-40s17.909-40,40-40s40,17.909,40,40C431.982,110.085,414.089,127.978,392.009,128.004z"
	/>
<path id="SVGCleanerId_0_1_" d="M384.009,0.004h16v16h-16V0.004z"/>
<path id="SVGCleanerId_1_1_" d="M384.009,160.004h16v16h-16V160.004z"/>
<path id="SVGCleanerId_2_1_" d="M304.009,80.004h16v16h-16V80.004z"/>
<path id="SVGCleanerId_3_1_" d="M464.009,80.004h16v16h-16V80.004z"/>
<path id="SVGCleanerId_4_1_" d="M324.128,31.435l11.314-11.314l11.314,11.314l-11.314,11.314L324.128,31.435z"/>
<path id="SVGCleanerId_5_1_" d="M437.263,144.571l11.314-11.314l11.314,11.314l-11.314,11.314L437.263,144.571z"/>
<path id="SVGCleanerId_6_1_" d="M324.127,144.571l11.314-11.314l11.314,11.314l-11.314,11.314L324.127,144.571z"/>
<path id="SVGCleanerId_7_1_" d="M437.263,31.435l11.314-11.314l11.314,11.314l-11.314,11.314L437.263,31.435z"/>
<g>
</g>
<g>
</g>
<g>
</g>
<g>
</g>
<g>
</g>
<g>
</g>
<g>
</g>
<g>
</g>
<g>
</g>
<g>
</g>
<g>
</g>
<g>
</g>
<g>
</g>
<g>
</g>
<g>
</g>
</svg>
