<svg id="Capa_1" enable-background="new 0 0 512 512" height="512" viewBox="0 0 512 512" width="512" xmlns="http://www.w3.org/2000/svg"><g><g><path clip-rule="evenodd" d="m446.519 193.88h-381.066l-28.953 161.146h439z" fill="#bfdbff" fill-rule="evenodd"/></g><g><path clip-rule="evenodd" d="m203.184 193.88h52.801 52.801c10.209-12.019 16.362-27.609 16.362-44.616 0-38.182-30.966-69.107-69.164-69.107-38.169 0-69.135 30.925-69.135 69.107.002 17.007 6.155 32.597 16.335 44.616z" fill="#ffda8f" fill-rule="evenodd"/></g><g><path clip-rule="evenodd" d="m279.636 397.63h148.564c11.712 0 21.296-9.581 21.296-21.288v-21.316h-386.992v21.316c0 11.707 9.585 21.288 21.296 21.288h148.564z" fill="#e7e9ef" fill-rule="evenodd"/></g><g><path clip-rule="evenodd" d="m232.364 397.63h47.272v60.859h-47.272z" fill="#a6afc6" fill-rule="evenodd"/></g><g><path clip-rule="evenodd" d="m178.939 502h154.122v-21.77c0-11.934-9.783-21.741-21.75-21.741h-31.675-47.272-31.675c-11.967 0-21.75 9.808-21.75 21.741z" fill="#e7e9ef" fill-rule="evenodd"/></g><g><path d="m255.986 43.924c-5.523 0-10-4.477-10-10v-23.924c0-5.523 4.477-10 10-10s10 4.477 10 10v23.924c0 5.523-4.477 10-10 10z"/></g><g><path d="m395.334 159.264h-23.962c-5.523 0-10-4.477-10-10s4.477-10 10-10h23.962c5.523 0 10 4.477 10 10s-4.477 10-10 10z"/></g><g><path d="m140.6 159.264h-23.934c-5.523 0-10-4.477-10-10s4.477-10 10-10h23.934c5.523 0 10 4.477 10 10s-4.477 10-10 10z"/></g><g><path d="m337.57 77.712c-2.56 0-5.12-.977-7.072-2.93-3.905-3.906-3.903-10.238.002-14.142l16.929-16.923c3.906-3.905 10.238-3.903 14.142.002 3.905 3.906 3.903 10.238-.002 14.142l-16.929 16.924c-1.953 1.951-4.512 2.927-7.07 2.927z"/></g><g><path d="m174.402 77.712c-2.559 0-5.117-.976-7.07-2.928l-16.929-16.923c-3.906-3.904-3.907-10.236-.002-14.142 3.904-3.906 10.235-3.908 14.142-.002l16.929 16.923c3.906 3.904 3.907 10.236.002 14.142-1.953 1.954-4.512 2.93-7.072 2.93z"/></g><g><path d="m485.342 353.256-19.313-107.39c-.023-.13-.042-.26-.07-.388l-9.598-53.369c-.857-4.764-5.002-8.23-9.842-8.23h-119.371c5.214-10.703 8.001-22.537 8.001-34.616 0-43.62-35.513-79.107-79.164-79.107-43.635 0-79.135 35.487-79.135 79.107 0 12.074 2.784 23.908 7.993 34.616h-119.39c-4.841 0-8.986 3.467-9.842 8.231l-19.239 107.081c-.029.134-.049.27-.073.406l-9.641 53.662c-.524 2.915.271 5.912 2.171 8.184s4.709 3.584 7.671 3.584h16.004v11.316c0 17.252 14.04 31.288 31.296 31.288h29.322c5.523 0 10-4.477 10-10s-4.477-10-10-10h-29.322c-6.229 0-11.296-5.063-11.296-11.288v-11.316h366.992v11.316c0 6.224-5.067 11.288-11.296 11.288h-225.243c-5.523 0-10 4.477-10 10s4.477 10 10 10h19.407v40.859h-21.675c-17.507 0-31.75 14.239-31.75 31.741v11.769h-43.397c-5.523 0-10 4.477-10 10s4.477 10 10 10h260.916c5.523 0 10-4.477 10-10s-4.477-10-10-10h-43.397v-11.77c0-17.502-14.243-31.741-31.75-31.741h-21.675v-40.859h138.564c17.257 0 31.296-14.036 31.296-31.288v-11.316h16.004c2.962 0 5.771-1.313 7.671-3.585s2.695-5.27 2.171-8.185zm-162.281 126.974v11.77h-134.122v-11.77c0-6.474 5.271-11.741 11.75-11.741h110.622c6.479 0 11.75 5.267 11.75 11.741zm-53.425-31.741h-27.271v-40.859h27.271zm-205.471-190.894h85.036l-4.662 33.716h-86.431zm105.226 0h76.595v33.716h-81.257zm76.595-53.715v33.715h-73.829l4.662-33.715zm89.193 0 4.656 33.715h-73.849v-33.715zm-89.193 107.431v33.715h-88.684l4.662-33.715zm20 0h84.029l4.656 33.715h-88.685zm0-20v-33.716h76.611l4.656 33.716zm96.801-33.716h85.03l6.063 33.716h-86.438zm81.434-20h-84.195l-4.656-33.715h82.788zm-247.37-88.331c0-32.592 26.528-59.107 59.135-59.107 32.623 0 59.164 26.516 59.164 59.107 0 12.478-3.966 24.604-11.229 34.616h-95.861c-7.25-10.022-11.209-22.148-11.209-34.616zm-40.222 54.616-4.662 33.715h-84.209l6.057-33.715zm-102.115 107.431h87.259l-4.662 33.715h-88.654zm320.347 33.715-4.656-33.715h87.273l6.063 33.715z"/><path d="m158.068 407.63c5.523 0 9.986-4.477 9.986-10s-4.491-10-10.014-10-10 4.477-10 10 4.477 10 10 10z"/></g></g></svg>