<svg height="512pt" viewBox="0 0 512.00001 512" width="512pt" xmlns="http://www.w3.org/2000/svg"><g fill="#5a5a5a"><path d="m80.9375 271.300781c-4.140625 0-7.5-3.359375-7.5-7.5v-75.597656c0-4.144531 3.359375-7.5 7.5-7.5 4.144531 0 7.5 3.355469 7.5 7.5v75.597656c0 4.140625-3.355469 7.5-7.5 7.5zm0 0"/><path d="m431.0625 271.300781c-4.144531 0-7.5-3.359375-7.5-7.5v-75.597656c0-4.144531 3.355469-7.5 7.5-7.5 4.140625 0 7.5 3.355469 7.5 7.5v75.597656c0 4.140625-3.359375 7.5-7.5 7.5zm0 0"/><path d="m309.257812 452.945312c0-4.039062-3.269531-7.308593-7.308593-7.308593h-91.898438c-4.039062 0-7.308593 3.269531-7.308593 7.308593v25.871094h106.515624zm0 0"/></g><path d="m284.410156 445.636719v33.179687h24.847656v-25.871094c0-4.039062-3.269531-7.308593-7.308593-7.308593zm0 0" fill="#464646"/><path d="m326.929688 478.816406h-141.859376c-3.375 0-6.109374 2.738282-6.109374 6.109375v20.964844c0 3.375 2.734374 6.109375 6.109374 6.109375h141.859376c3.375 0 6.109374-2.734375 6.109374-6.109375v-20.964844c0-3.371093-2.734374-6.109375-6.109374-6.109375zm0 0" fill="#cdcdcd"/><path d="m308.191406 478.816406v33.183594h18.738282c3.375 0 6.109374-2.734375 6.109374-6.109375v-20.964844c0-3.371093-2.734374-6.109375-6.109374-6.109375zm0 0" fill="#bebebe"/><path d="m303.195312 34.050781c0 4.035157-3.273437 7.308594-7.308593 7.308594h-79.773438c-4.039062 0-7.308593-3.273437-7.308593-7.308594v-8.210937c0-14.273438 11.566406-25.839844 25.839843-25.839844h38.683594c16.496094 0 29.867187 13.371094 29.867187 29.867188zm0 0" fill="#40c1fa"/><path d="m303.195312 26.617188c0-14.699219-11.917968-26.617188-26.617187-26.617188h-29.84375c14.699219 0 26.617187 11.917969 26.617187 26.617188v14.742187h-64.546874 87.082031c4.039062 0 7.308593-3.269531 7.308593-7.308594zm0 0" fill="#07a9f0"/><path d="m161.878906 334.738281c0 44.699219-36.238281 80.9375-80.941406 80.9375-44.699219 0-80.9375-36.238281-80.9375-80.9375 0-44.703125 36.238281-80.9375 80.9375-80.9375 44.703125 0 80.941406 36.234375 80.941406 80.9375zm0 0" fill="#ffd508"/><path d="m161.878906 334.738281c0-44.703125-36.238281-80.9375-80.941406-80.9375-5.679688 0-11.222656.589844-16.578125 1.703125 36.75 7.652344 64.363281 40.214844 64.363281 79.234375s-27.613281 71.582031-64.363281 79.234375c5.355469 1.113282 10.898437 1.703125 16.578125 1.703125 44.703125 0 80.941406-36.234375 80.941406-80.9375zm0 0" fill="#eec707"/><path d="m99.351562 286.246094h-25.988281c-1.320312 0-2.53125.722656-3.160156 1.882812l-23.84375 44.046875c-1.296875 2.394531.4375 5.304688 3.164063 5.300781l20.089843-.03125c2.5625-.003906 4.304688 2.59375 3.328125 4.960938l-9.9375 24.148438c-1.496094 3.632812 3.089844 6.6875 5.863282 3.902343l43.417968-43.5625c2.257813-2.265625.65625-6.128906-2.542968-6.128906h-19.796876c-2.859374 0-4.574218-3.179687-3-5.566406l15.40625-23.382813c1.570313-2.390625-.140624-5.570312-3-5.570312zm0 0" fill="#fc9842"/><path d="m512 334.738281c0 44.699219-36.238281 80.9375-80.9375 80.9375-44.703125 0-80.941406-36.238281-80.941406-80.9375 0-44.703125 36.238281-80.9375 80.941406-80.9375 44.699219 0 80.9375 36.234375 80.9375 80.9375zm0 0" fill="#ffd508"/><path d="m512 334.738281c0-44.703125-36.238281-80.9375-80.9375-80.9375-5.683594 0-11.226562.589844-16.578125 1.703125 36.746094 7.652344 64.359375 40.214844 64.359375 79.234375s-27.613281 71.582031-64.359375 79.234375c5.351563 1.113282 10.894531 1.703125 16.578125 1.703125 44.699219 0 80.9375-36.234375 80.9375-80.9375zm0 0" fill="#eec707"/><path d="m431.0625 384.726562-22.414062-22.414062c-15.230469-15.230469-15.230469-39.921875 0-55.152344l17.246093-17.242187c2.851563-2.855469 7.480469-2.855469 10.332031 0l17.246094 17.242187c15.230469 15.230469 15.230469 39.921875 0 55.152344zm0 0" fill="#72e4a0"/><path d="m431.0625 391.226562c-4.144531 0-7.5-3.359374-7.5-7.5v-48.988281c0-4.140625 3.355469-7.5 7.5-7.5 4.140625 0 7.5 3.359375 7.5 7.5v48.988281c0 4.140626-3.359375 7.5-7.5 7.5zm0 0" fill="#59b37d"/><path d="m512 158.769531c0 8.335938-6.757812 15.09375-15.09375 15.09375h-481.8125c-8.335938 0-15.09375-6.757812-15.09375-15.09375v-15.597656c0-7.5 5.503906-13.859375 12.921875-14.941406l243.078125-35.351563 243.078125 35.351563c7.417969 1.082031 12.921875 7.441406 12.921875 14.941406zm0 0" fill="#5a5a5a"/><path d="m512 143.171875c0-7.5-5.503906-13.859375-12.921875-14.9375l-31.425781-4.570313c.210937 1.402344.328125 2.835938.328125 4.292969v29.515625c0 6.101563-1.917969 11.75-5.179688 16.390625h34.105469c8.335938 0 15.09375-6.757812 15.09375-15.09375zm0 0" fill="#464646"/><path d="m126.511719 190.894531c0 4.035157-3.269531 7.308594-7.308594 7.308594h-76.53125c-4.035156 0-7.308594-3.273437-7.308594-7.308594v-17.03125h91.148438zm0 0" fill="#40c1fa"/><path d="m476.636719 190.894531c0 4.035157-3.273438 7.308594-7.308594 7.308594h-76.53125c-4.039063 0-7.308594-3.273437-7.308594-7.308594v-17.03125h91.148438zm0 0" fill="#40c1fa"/><path d="m229.636719 41.359375h52.726562v404.277344h-52.726562zm0 0" fill="#cdcdcd"/><path d="m257.515625 41.359375h24.847656v404.277344h-24.847656zm0 0" fill="#bebebe"/></svg>