<svg height="512" viewBox="0 0 128 128" width="512" xmlns="http://www.w3.org/2000/svg"><g><g><g fill="#3ba9fd"><path d="m38.25 88.25h51.5v9h-51.5z" transform="matrix(0 1 -1 0 156.75 28.75)"/><path d="m121.5 67.5v9h-115v-9l8.21-28.31 1-3.44 8.48-29.25h79.62l8.48 29.25 1 3.44z"/><path d="m24.192 115.5h79.615v6h-79.615z"/></g><path d="m51.53 109.5h24.94v6h-24.94z" fill="#0e8bce"/><path d="m51.53 75.333h24.94v7.167h-24.94z" fill="#eaeaf0"/><path d="m6.5 67.5h115v9h-115z" fill="#0e8bce"/></g><g fill="#051720"><path d="m19.338 23.239a1.746 1.746 0 0 0 2.168-1.194l1.507-5.195a1.75 1.75 0 0 0 -3.362-.975l-1.506 5.2a1.748 1.748 0 0 0 1.193 2.164z"/><path d="m123.181 67.013-17.693-61a1.75 1.75 0 0 0 -1.68-1.263h-79.616a1.749 1.749 0 0 0 -1.68 1.263l-1.076 3.712a1.75 1.75 0 1 0 3.364.975l.71-2.449h14.808l-4.335 27.5h-18.452l2-6.91a1.75 1.75 0 1 0 -3.361-.974l-11.351 39.146a1.742 1.742 0 0 0 -.069.487v9a1.75 1.75 0 0 0 1.75 1.75h43.28v4.25a1.75 1.75 0 0 0 1.75 1.75h6.22v11.75a1.75 1.75 0 0 0 3.5 0v-11.75h5.5v23.5h-5.5v-3.417a1.75 1.75 0 0 0 -3.5 0v3.417h-6.22a1.75 1.75 0 0 0 -1.75 1.75v4.25h-25.588a1.751 1.751 0 0 0 -1.75 1.75v6a1.751 1.751 0 0 0 1.75 1.75h57.308a1.75 1.75 0 0 0 0-3.5h-55.558v-2.5h76.116v2.5h-11.433a1.75 1.75 0 0 0 0 3.5h13.183a1.751 1.751 0 0 0 1.75-1.75v-6a1.751 1.751 0 0 0 -1.75-1.75h-25.588v-4.25a1.75 1.75 0 0 0 -1.75-1.75h-6.22v-23.5h6.22a1.75 1.75 0 0 0 1.75-1.75v-4.25h43.28a1.75 1.75 0 0 0 1.75-1.75v-9a1.742 1.742 0 0 0 -.069-.487zm-48.461 46.737h-21.44v-2.5h21.44zm-8.97-74.5h23.275l4.175 26.5h-27.45zm-3.5 26.5h-27.45l4.178-26.5h23.272zm34.5 0-4.178-26.5h18.916l7.686 26.5zm13.723-30h-18.456l-4.335-27.5h14.811zm-21.995 0h-22.728v-27.5h18.389zm-44.617-27.5h18.389v27.5h-22.724zm-8.429 31-4.178 26.5h-22.424l7.686-26.5zm-27.182 30h22.75v5.5h-22.75zm26.25 0h27.75v5.5h-27.75zm40.22 11.5h-21.44v-2.5h21.44zm1.75-6h-10.72v-5.5h27.75v5.5zm20.53 0v-5.5h22.75v5.5z"/><path d="m99.019 17.81 1.683 5.8a1.75 1.75 0 1 0 3.361-.975l-1.683-5.8a1.75 1.75 0 1 0 -3.361.975z"/></g></g></svg>